{"asset":{"version":"2.0","generator":"THREE.GLTFExporter"},"scenes":[{"name":"AuxScene","nodes":[0]}],"scene":0,"nodes":[{"mesh":0}],"bufferViews":[{"buffer":0,"byteOffset":0,"byteLength":8532,"target":34962,"byteStride":12},{"buffer":0,"byteOffset":8532,"byteLength":8532,"target":34962,"byteStride":12}],"buffers":[{"byteLength":17064,"uri":"data:application/octet-stream;base64,"}],"accessors":[{"bufferView":0,"componentType":5126,"count":711,"max":[20.67937660217285,9.100000381469727,11.590204238891602],"min":[-23.220624923706055,-0.30000001192092896,-4.409796237945557],"type":"VEC3"},{"bufferView":1,"componentType":5126,"count":711,"max":[0.942811131477356,1,0.751289963722229],"min":[-0.8935331702232361,0.2356874644756317,-0.2369873970746994],"type":"VEC3"}],"materials":[{"pbrMetallicRoughness":{"baseColorFactor":[0.5019607843137255,0.5019607843137255,0.5019607843137255,1],"metallicFactor":0,"roughnessFactor":1}}],"meshes":[{"primitives":[{"mode":4,"attributes":{"POSITION":0,"NORMAL":1},"material":0}]}]}